<svg width="272" height="343" viewBox="0 0 272 343" fill="none" xmlns="http://www.w3.org/2000/svg">
<path d="M91.8171 241.299C113.553 231.249 128.439 214.946 135.366 191.671C138.211 182.093 139.285 172.03 139.775 162.074C140.741 142.02 148.755 125.991 163.102 112.386C177.832 98.4225 188.875 81.6442 194.572 61.7308C196.366 55.4371 197.464 49.115 195.067 42.3464C193.21 37.0898 189.611 32.8853 183.717 31.8617C178.952 31.03 173.022 34.3684 170.794 39.2145C169.508 42.013 168.501 44.7879 167.091 48.5658C167.091 48.5658 162.071 44.3337 156.355 42.0668C150.856 39.8817 145.789 41.6712 142.703 45.0645C139.08 49.0272 137.748 54.8043 140.333 60.6639C144.795 70.7657 153.568 76.0067 162.449 81.1186C165.962 83.1365 170.01 84.1275 173.252 86.6969" stroke="#fff" stroke-width="5" stroke-linecap="round" stroke-linejoin="round"/>
<path d="M28.8918 229.324C20.2237 228.511 16.7346 223.334 20.2018 216.021C21.0247 214.291 21.6503 212.527 22.2977 210.751C24.2837 205.318 23.4389 203.183 18.4794 200.292C15.8131 198.737 12.9712 197.622 10.2062 196.322C-0.744245 191.133 1.92174 184.761 6.33262 178.214C12.2796 169.391 18.8523 161.08 24.0861 151.643C29.0236 142.739 30.9549 134.033 29.1335 123.656C27.6303 115.089 29.2978 106.22 31.0424 97.5722C34.3889 81.0075 39.6887 65.2786 48.664 51.1747C62.4124 29.5489 82.097 16.6175 105.139 8.78204C122.486 2.88514 140.481 1.41091 158.333 3.23338C183.745 5.83359 207.237 14.8647 227.481 31.9982C246.836 48.3888 259.388 69.7129 265.62 94.7515C268.638 106.859 270.294 119.662 269.12 132.396C266.531 160.511 257.775 186.165 241.821 209.079C233.625 220.862 226.866 233.503 222.927 247.85C218.78 262.941 218.747 278.078 221.128 293.134C222.62 302.583 224.386 312.252 228.567 321.039" stroke="#fff" stroke-width="5" stroke-linecap="round" stroke-linejoin="round"/>
<path d="M26.5747 230.906C20.7598 237.083 20.6391 238.572 26.6187 244.818C30.5355 248.912 31.0622 253.484 29.9102 258.835C28.5497 265.162 26.5965 271.839 29.4601 277.946C32.8943 285.263 38.8739 289.834 46.8722 290.194C63.2748 290.927 76.43 288.147 92.3279 284.285C95.1915 283.587 100.139 283.052 104.616 283.192" stroke="#fff" stroke-width="5" stroke-linecap="round" stroke-linejoin="round"/>
<path d="M107.583 340.5C103.446 329.124 100.968 317.122 100.871 305.132C100.753 291.379 104.233 278.079 112.442 266.877C118.227 258.98 125.208 252.498 133.471 247.801C136.692 245.969 140.657 245.157 142.995 248.996C144.912 252.138 143.749 255.71 141.54 258.771C134.742 268.222 119.089 282.891 104.491 282.462" stroke="#fff" stroke-width="5" stroke-linecap="round" stroke-linejoin="round"/>
<path d="M90.7731 88.066C94.6931 89.956 98.4634 87.636 102.263 87.376C113.983 86.596 121.593 94.426 124.273 103.566C126.943 112.656 124.953 121.306 121.203 129.536C116.553 139.736 109.663 148.056 99.2834 153.096C94.4534 155.446 89.6135 155.076 85.3435 152.456C81.1635 149.886 76.8132 148.866 72.2932 149.676C64.9232 150.996 60.4935 147.896 56.1135 142.196C49.7335 133.886 47.1632 124.346 46.5432 114.556C45.9632 105.356 47.8235 95.866 54.3635 88.656C62.2935 79.906 72.5233 78.496 83.7233 85.646C85.8233 86.986 87.5331 88.726 90.2731 88.076" stroke="#fff" stroke-width="5" stroke-linecap="round" stroke-linejoin="round"/>
<path d="M92.5136 77.4061C95.2436 68.1361 99.7436 62.3961 105.264 60.5361C111.384 58.4761 116.603 57.9661 124.773 59.0661C123.113 73.3361 105.453 83.2861 92.2333 77.9661" stroke="#fff" stroke-width="5" stroke-linecap="round" stroke-linejoin="round"/>
<path d="M106.554 96.646C112.844 98.946 115.163 104.046 115.473 110.146C115.673 113.966 116.274 117.926 114.554 121.646" stroke="#fff" stroke-width="3" stroke-linecap="round" stroke-linejoin="round"/>
<path d="M80.019 62.1274C85.829 66.3674 87.039 74.7574 90.559 80.1674" stroke="#fff" stroke-width="5" stroke-linecap="round" stroke-linejoin="round"/>
<path d="M91.7734 78.5659C89.1034 81.2059 90.7234 84.5559 90.2734 87.5659" stroke="#fff" stroke-width="5" stroke-linecap="round" stroke-linejoin="round"/>
<path d="M186.215 123.151C200.125 127 211.793 134 221.476 144.998C228.396 152.847 232.533 161.891 236.478 171.279" stroke="#fff" stroke-width="5" stroke-linecap="round" stroke-linejoin="round"/>
<path d="M196.29 140.523C199.158 144.351 199.137 147.047 196.233 149.768C194.157 151.71 189.284 151.895 187.417 150.103C185.262 148.038 185.091 143.07 187.076 140.567C189.297 137.777 192.118 137.669 195.892 140.231" stroke="#fff" stroke-width="3" stroke-linecap="round" stroke-linejoin="round"/>
<path d="M208.81 144.756C210.8 146.49 211.797 148.674 211.278 151.531" stroke="#fff" stroke-width="4" stroke-linecap="round" stroke-linejoin="round"/>
<path d="M220.003 160.434C221.811 163.365 221.617 166.125 219.389 169.207C217.436 171.898 214.956 172.411 212.321 172.142C209.497 171.859 207.415 170.342 206.902 167.215C206.4 164.171 206.792 161.444 209.702 159.531C212.372 157.783 215.091 156.738 217.841 158.834C218.453 159.296 219.077 159.742 219.703 160.202" stroke="#fff" stroke-width="3" stroke-linecap="round" stroke-linejoin="round"/>
<path d="M159.052 202.506C163.835 187.779 169.335 173.282 173.907 158.498C178.155 144.761 183.561 131.369 186.911 117.354C188.396 111.159 191.183 109.908 197.337 112.057C208.258 115.867 217.949 122.021 226.189 129.79C250.111 152.312 248.611 166.856 248.268 168.741C229.496 174.528 212.387 182.697 194.469 188.741C184.631 192.062 175.831 197.084 165.659 199.949C163.732 200.485 160.793 201.896 159.044 202.501" stroke="#fff" stroke-width="5" stroke-linecap="round" stroke-linejoin="round"/>
<path d="M174.712 159.086C179.7 160.516 182.17 164.296 180.844 168.472C179.356 173.142 175.463 174.847 169.921 173.267" stroke="#fff" stroke-width="3" stroke-linecap="round" stroke-linejoin="round"/>
<path d="M175.709 194.888C174.921 188.574 176.853 184.64 181.677 182.74C187.132 180.591 190.922 182.141 193.478 187.592" stroke="#fff" stroke-width="3" stroke-linecap="round" stroke-linejoin="round"/>
<path d="M195.26 163.341C192.646 166.135 192.337 169.072 193.684 172.109" stroke="#fff" stroke-width="4" stroke-linecap="round" stroke-linejoin="round"/>
</svg>
